# AST/ASF file generated using VICON BodyLanguage
# -----------------------------------------------
:version 1.10
:name VICON
:units
  mass 1.0
  length 0.45
  angle deg
:documentation
   .ast/.asf automatically generated from VICON data using
   VICON BodyBuilder and BodyLanguage model FoxedUp or BRILLIANT.MOD
:root
   order TX TY TZ RX RY RZ
   axis XYZ
   position 0 0 0  
   orientation 0 0 0 
:bonedata
  begin
     id 1 
     name lhipjoint
     direction 0.573633 -0.743009 0.344793 
     length 2.46257 
     axis 0 0 0  XYZ
  end
  begin
     id 2 
     name lfemur
     direction 0.34202 -0.939693 0  
     length 7.3842  
     axis 0 0 20  XYZ
    dof rx ry rz
    limits (-160.0 20.0)
           (-70.0 70.0)
           (-60.0 70.0)
  end
  begin
     id 3 
     name ltibia
     direction 0.34202 -0.939693 0   
     length 7.50407   
     axis 0 0 20   XYZ
    dof rx
    limits (-10.0 170.0)
  end
  begin
     id 4 
     name lfoot
     direction 0.110749 -0.304281 0.946123   
     length 1.95925   
     axis -90 7.62852e-016 20   XYZ
    dof rx rz
    limits (-45.0 90.0)
           (-70.0 20.0)
  end
  begin
     id 5 
     name ltoes
     direction 1.53554e-011 -4.21843e-011 1   
     length 0.978318   
     axis -90 7.62852e-016 20   XYZ
    dof rx
    limits (-90.0 20.0)
  end
  begin
     id 6 
     name rhipjoint
     direction -0.488109 -0.791693 0.367385   
     length 2.31113  
     axis 0 0 0  XYZ 
  end
  begin
     id 7 
     name rfemur
     direction -0.34202 -0.939693 0   
     length 7.40965   
     axis 0 0 -20   XYZ
    dof rx ry rz
    limits (-160.0 20.0)
           (-70.0 70.0)
           (-70.0 60.0)
  end
  begin
     id 8 
     name rtibia
     direction -0.34202 -0.939693 0   
     length 7.55548   
     axis 0 0 -20   XYZ
    dof rx
    limits (-10.0 170.0)
 end
 begin
     id 9 
     name rfoot
     direction -0.127594 -0.350561 0.927808   
     length 2.07199  
     axis -90 -7.62852e-016 -20   XYZ
    dof rx rz
    limits (-45.0 90.0)
           (-20.0 70.0)
  end
  begin
     id 10 
     name rtoes
     direction -1.53542e-011 -4.21909e-011 1   
     length 1.02667   
     axis -90 -7.62852e-016 -20   XYZ
    dof rx
    limits (-90.0 20.0)
  end
  begin
     id 11 
     name lowerback
     direction -0.0103342 0.997298 -0.0727278   
     length 2.02836   
     axis 0 0 0   XYZ
    dof rx ry rz
    limits (-20.0 45.0)
           (-30.0 30.0)
           (-30.0 30.0)
  end
  begin
     id 12 
     name upperback
     direction 0.0171146 0.999786 -0.011606   
     length 2.03179   
     axis 0 0 0   XYZ
    dof rx ry rz
    limits (-20.0 45.0)
           (-30.0 30.0)
           (-30.0 30.0)
  end
  begin
     id 13 
     name thorax
     direction 0.0216927 0.999513 0.0224343   
     length 2.03882   
     axis 0 0 0   XYZ
    dof rx ry rz
    limits (-20.0 45.0)
           (-30.0 30.0)
           (-30.0 30.0)
  end
  begin
     id 14 
     name lowerneck
     direction 0.000989287 0.993907 0.110221   
     length 1.75428   
     axis 0 0 0   XYZ
    dof rx ry rz
    limits (-20.0 45.0)
           (-30.0 30.0)
           (-30.0 30.0)
  end
  begin
     id 15 
     name upperneck
     direction -0.0172474 0.994813 -0.100253   
     length 1.77058   
     axis 0 0 0   XYZ
    dof rx ry rz
    limits (-20.0 45.0)
           (-30.0 30.0)
           (-30.0 30.0)
  end
  begin
     id 16
     name head
     direction -0.00486455 0.99894 -0.0457663  
     length 1.77427  
     axis 0 0 0   XYZ
    dof rx ry rz
    limits (-20.0 45.0)
           (-30.0 30.0)
           (-30.0 30.0)
  end
  begin
     id 17 
     name lclavicle
     direction 0.927314 0.333734 -0.169441  
     length 3.97584  
     axis 0 0 0   XYZ
    dof ry rz
    limits (-20.0 10.0)
           (0.0 20.0)
  end
  begin
     id 18 
     name lhumerus
     direction 1 -4.48965e-011 -3.25313e-028   
     length 4.76468   
     axis 180 -30 -90   XYZ
    dof rx ry rz
    limits (-60.0 90.0)
           (-90.0 90.0)
           (-90.0 90.0)
  end
  begin
     id 19
     name lradius
     direction 1 -4.48969e-011 -2.8465e-028   
     length 3.52712   
     axis -180 -30 -90   XYZ
    dof rx
    limits (-10.0 170.0)
  end
  begin
     id 20
     name lwrist
     direction 1 -4.4896e-011 -7.78665e-028   
     length 1.76356   
     axis 1.91374e-015 90 90   XYZ
    dof ry
    limits (-180.0 0.0)
 end
  begin
     id 21 
     name lhand
     direction 1 -4.48959e-011 -1.55733e-027   
     length 0.859564   
     axis 9.9371e-016 90 90   XYZ
    dof rx rz
    limits (-90.0 90.0)
           (-45.0 45.0)
  end
  begin
     id 22 
     name lfingers
     direction 1 -4.48965e-011 -3.11466e-027   
     length 0.693002   
     axis 1.98742e-015 90 90   XYZ
    dof rx
    limits (0.0 90.0)
  end
  begin
     id 23
     name lthumb
     direction 0.707107 -6.34948e-011 0.707107   
     length 0.995017   
     axis -90 45 2.85299e-015   XYZ
    dof rx rz
    limits (-45.0 45.0)
           (-45.0 45.0)
  end
  begin
     id 24 
     name rclavicle
     direction -0.899388 0.348209 -0.264294   
     length 3.68366  
     axis 0 0 0   XYZ 
    dof ry rz
    limits (-10.0 20.0)
           (-20.0 0.0)
  end
  begin
     id 25 
     name rhumerus
     direction -1 -4.48965e-011 -3.01536e-027  
     length 4.90577   
     axis 180 30 90   XYZ
    dof rx ry rz
    limits (-90.0 60.0)
           (-90.0 90.0)
           (-90.0 90.0)
  end
  begin
     id 26 
     name rradius
     direction -1 -4.48966e-011 3.93291e-027   
     length 3.42692   
     axis -180 30 90   XYZ
    dof rx
    limits (-10.0 170.0)
  end
  begin
     id 27 
     name rwrist
     direction -1 -4.48969e-011 -7.78665e-028   
     length 1.71346   
     axis 1.91374e-015 -90 -90   XYZ
    dof ry
    limits (-180.0 0.0)
  end
  begin
     id 28
     name rhand
     direction -1 -4.48967e-011 -1.55733e-027   
     length 0.740957   
     axis 9.9371e-016 -90 -90   XYZ
    dof rx rz
    limits (-90.0 90.0)
           (-45.0 45.0)
  end
  begin
     id 29
     name rfingers
     direction -1 -4.48949e-011 -3.11466e-027   
     length 0.597378   
     axis 1.98742e-015 -90 -90   XYZ
    dof rx
    limits (0.0 90.0)
  end
  begin
     id 30
     name rthumb
     direction -0.707107 -6.34931e-011 0.707107   
     length 0.857719   
     axis -90 -45 -2.85299e-015   XYZ
    dof rx rz
    limits (-45.0 45.0)
           (-45.0 45.0)
  end
:hierarchy
  begin
    root lhipjoint rhipjoint lowerback
    lhipjoint lfemur
    lfemur ltibia
    ltibia lfoot
    lfoot ltoes
    rhipjoint rfemur
    rfemur rtibia
    rtibia rfoot
    rfoot rtoes
    lowerback upperback
    upperback thorax
    thorax lowerneck lclavicle rclavicle
    lowerneck upperneck
    upperneck head
    lclavicle lhumerus
    lhumerus lradius
    lradius lwrist
    lwrist lhand lthumb
    lhand lfingers
    rclavicle rhumerus
    rhumerus rradius
    rradius rwrist
    rwrist rhand rthumb
    rhand rfingers
  end

#!OML:ASF E:\I on waltz\AllaLogoMonkeySwing\Project 1\Capture day 1\Session 1\Subject1.ASF
:FULLY-SPECIFIED
:DEGREES
236
root 2.26369 15.4523 18.1364 -4.22843 18.6025 8.11912
lowerback 13.2504 -3.55891 -13.312
upperback 2.02924 -6.57351 0.0410284
thorax -3.73253 -3.09664 8.50954
lowerneck -8.79361 0.715732 0.236276
upperneck 18.4585 1.35577 -2.10686
head 7.109 0.487852 -0.603052
rclavicle 1.43622e-014 -4.77083e-015
rhumerus -56.8004 -12.2808 -64.7599
rradius 53.4672
rwrist -8.70541
rhand -9.98426 -36.0207
rfingers 7.12502
rthumb 15.9988 -65.3801
lclavicle 1.43622e-014 -4.77083e-015
lhumerus -33.3829 2.04783 91.2043
lradius 62.4143
lwrist -1.05496
lhand -9.49042 -27.7875
lfingers 7.12502
lthumb 16.4743 1.53301
rfemur -39.281 -16.6469 15.575
rtibia 42.2666
rfoot 5.95792 3.93671
rtoes 13.8968
lfemur 12.5632 2.43939 -30.7791
ltibia 66.1783
lfoot -17.1402 -4.27694
ltoes -36.4796
237
root 2.28147 15.1658 18.7514 -6.44754 20.3196 5.78967
lowerback 14.434 -3.39841 -11.4755
upperback 1.80344 -6.23923 0.643612
thorax -4.83714 -2.86412 8.23963
lowerneck -8.40505 0.192809 -0.880431
upperneck 18.5756 0.766753 -1.81531
head 7.0669 0.157649 -0.373732
rclavicle 4.02787e-014 -5.96354e-015
rhumerus -58.1842 -13.1777 -63.9607
rradius 52.529
rwrist -8.63507
rhand -10.6734 -35.224
rfingers 7.12502
rthumb 15.3351 -64.6354
lclavicle 4.02787e-014 -5.96354e-015
lhumerus -33.5732 3.03643 91.7829
lradius 62.4068
lwrist -1.87848
lhand -9.22795 -27.4628
lfingers 7.12502
lthumb 16.727 1.8366
rfemur -37.7859 -13.4142 17.3849
rtibia 45.4977
rfoot -0.0805502 -5.75606
rtoes 26.7158
lfemur 10.9961 2.56769 -25.8516
ltibia 72.7876
lfoot -17.4372 -3.14967
ltoes -34.6824
238
root 2.32127 14.981 19.2486 -9.52968 18.8059 -0.93841
lowerback 15.2816 -3.0996 -5.23944
upperback 1.76649 -4.78803 2.52741
thorax -6.00921 -2.19502 6.61437
lowerneck -8.73618 -0.0907948 -1.69928
upperneck 18.6805 0.531262 -1.85849
head 7.15933 -0.0170972 -0.271427
rclavicle -2.26242e-014 -2.50469e-014
rhumerus -56.8522 -13.9656 -63.606
rradius 49.2141
rwrist -8.61544
rhand -11.532 -34.2893
rfingers 7.12502
rthumb 14.5079 -63.762
lclavicle -2.26242e-014 -2.50469e-014
lhumerus -33.1016 4.97032 92.2563
lradius 62.1282
lwrist -1.86847
lhand -10.2199 -26.8901
lfingers 7.12502
lthumb 15.7719 2.48728
rfemur -38.6983 -7.73195 25.0266
rtibia 50.732
rfoot 0.0158004 -8.92207
rtoes 23.1787
lfemur 7.95079 4.79118 -15.9667
ltibia 79.0219
lfoot -19.1563 -6.66049
ltoes -31.4565
239
root 2.32848 14.8625 19.7118 -11.3653 17.9311 -3.78854
lowerback 15.9295 -2.64565 -3.04663
upperback 2.05345 -3.77502 3.23942
thorax -6.2995 -1.7338 5.98101
lowerneck -9.30313 -0.304231 -1.75772
upperneck 18.5868 0.243958 -1.76285
head 7.22936 -0.151759 -0.256317
rclavicle -1.93691e-014 3.1408e-014
rhumerus -53.3728 -15.3652 -63.856
rradius 43.5985
rwrist -8.29707
rhand -11.4697 -33.1117
rfingers 7.12502
rthumb 14.5679 -62.5801
lclavicle -1.93691e-014 3.1408e-014
lhumerus -32.7403 7.23069 92.0786
lradius 61.6157
lwrist -1.91256
lhand -12.0836 -26.7707
lfingers 7.12502
lthumb 13.9765 2.73949
rfemur -37.9377 -6.35641 28.9295
rtibia 54.3181
rfoot -3.11762 -9.94448
rtoes 22.2526
lfemur 3.92858 6.05317 -11.0254
ltibia 84.7403
lfoot -18.792 -4.20752
ltoes -28.3906
240
root 2.27876 14.8494 20.1325 -10.5822 19.573 -0.92745
lowerback 16.1747 -2.22944 -7.46882
upperback 1.85955 -4.06632 2.54911
thorax -6.34517 -1.77112 7.84913
lowerneck -9.30763 -0.352832 -1.34562
upperneck 18.3572 0.0718196 -1.60111
head 7.15374 -0.189046 -0.287088
rclavicle 2.10463e-014 7.95139e-016
rhumerus -49.1262 -16.9674 -64.1583
rradius 36.3338
rwrist -6.96752
rhand -9.99244 -32.8914
rfingers 7.12502
rthumb 15.9909 -62.2514
lclavicle 2.10463e-014 7.95139e-016
lhumerus -33.2374 9.39812 91.4462
lradius 60.9331
lwrist -0.297732
lhand -15.158 -26.8858
lfingers 7.12502
lthumb 11.0124 2.8053
rfemur -38.0513 -7.252 25.9496
rtibia 57.5321
rfoot -5.87807 -11.0153
rtoes 18.3312
lfemur -2.30571 5.0342 -13.9941
ltibia 89.7023
lfoot -18.8235 -2.39582
ltoes -25.9752
241
root 2.24787 14.909 20.4937 -11.522 20.743 -2.67461
lowerback 16.8192 -2.36807 -7.02043
upperback 1.75158 -4.18636 2.90249
thorax -6.79888 -1.80691 8.06129
lowerneck -8.94653 -0.522812 -0.959878
upperneck 18.2341 -0.310481 -1.19705
head 7.04738 -0.308136 -0.252607
rclavicle 4.43329e-014 -1.98785e-015
rhumerus -46.4843 -20.3992 -63.2291
rradius 31.3612
rwrist -1.48465
rhand -5.20056 -35.0952
rfingers 7.12502
rthumb 20.6007 -64.022
lclavicle 4.43329e-014 -1.98785e-015
lhumerus -33.9898 10.653 90.7533
lradius 59.6434
lwrist 2.31331
lhand -18.673 -27.3412
lfingers 7.12502
lthumb 7.6208 2.50148
rfemur -36.3527 -9.30396 27.8215
rtibia 57.837
rfoot -8.20746 -11.5454
rtoes 21.3535
lfemur -8.39205 3.39582 -12.1312
ltibia 93.0451
lfoot -18.554 -1.24897
ltoes -25.846
242
root 2.2482 14.9933 20.8084 -12.664 21.5079 -4.26617
lowerback 16.8829 -2.30923 -6.28794
upperback 2.29451 -3.93072 3.30625
thorax -6.31136 -1.73857 8.00741
lowerneck -9.36761 -0.900259 -1.32199
upperneck 18.1094 -0.928372 -0.319918
head 7.0868 -0.55289 0.0358631
rclavicle -2.79386e-014 -1.31198e-014
rhumerus -43.487 -23.9307 -62.7922
rradius 28.1673
rwrist 2.63052
rhand -4.08346 -37.4998
rfingers 7.12502
rthumb 21.6738 -66.3066
lclavicle -2.79386e-014 -1.31198e-014
lhumerus -33.1649 11.1084 90.6798
lradius 57.4984
lwrist 5.33085
lhand -20.2921 -27.0209
lfingers 7.12502
lthumb 6.05783 2.87253
rfemur -34.3251 -11.188 29.3382
rtibia 57.7118
rfoot -10.1549 -11.5058
rtoes 23.9193
lfemur -13.8877 1.85021 -10.8659
ltibia 94.2552
lfoot -18.1545 0.287903
ltoes -24.189
243
root 2.26078 15.1155 21.0891 -13.8375 21.4856 -5.72072
lowerback 17.5672 -1.94473 -4.89386
upperback 2.45121 -3.20067 3.43327
thorax -6.71729 -1.39369 7.23401
lowerneck -9.56335 -1.44693 -1.76388
upperneck 18.319 -1.81154 0.798538
head 7.20883 -0.907353 0.391115
rclavicle -4.53377e-014 3.47873e-015
rhumerus -41.907 -25.4123 -63.6667
rradius 27.2996
rwrist 4.4649
rhand -4.39431 -40.1724
rfingers 7.12502
rthumb 21.3753 -69.0134
lclavicle -4.53377e-014 3.47873e-015
lhumerus -32.6166 10.5567 90.3667
lradius 54.9127
lwrist 8.13119
lhand -20.1986 -25.5936
lfingers 7.12502
lthumb 6.14809 4.29718
rfemur -31.786 -12.3011 30.7763
rtibia 56.7208
rfoot -11.1948 -11.0755
rtoes 23.6978
lfemur -18.2146 0.702369 -9.76159
ltibia 93.6249
lfoot -18.1643 1.79168
ltoes -28.2837
244
root 2.278 15.2776 21.3525 -14.5946 20.7836 -6.72876
lowerback 17.8287 -1.34371 -3.64069
upperback 2.56992 -2.1649 3.49146
thorax -6.93924 -0.909749 6.35582
lowerneck -9.48333 -2.01412 -2.2458
upperneck 18.2892 -2.66628 1.62756
head 7.21502 -1.27592 0.663326
rclavicle 4.16716e-014 -8.1626e-015
rhumerus -40.3582 -24.3477 -66.0026
rradius 28.1549
rwrist 4.09086
rhand -6.96113 -40.2687
rfingers 7.12502
rthumb 18.9082 -69.3696
lclavicle 4.16716e-014 -8.1626e-015
lhumerus -31.9475 10.0644 89.9484
lradius 52.1985
lwrist 9.53999
lhand -18.6047 -23.7033
lfingers 7.12502
lthumb 7.68672 6.13703
rfemur -29.0683 -12.4849 31.9471
rtibia 54.9432
rfoot -11.8927 -10.6304
rtoes 23.8447
lfemur -21.593 0.0353046 -8.77062
ltibia 91.3387
lfoot -17.9506 2.27449
ltoes -29.0675
245
root 2.30081 15.4707 21.609 -14.6919 19.9663 -6.76186
lowerback 17.5833 -0.722012 -3.30619
upperback 2.67221 -1.2856 3.3525
thorax -6.82322 -0.496502 5.79596
lowerneck -9.37285 -2.382 -2.66548
upperneck 18.1569 -3.22284 2.27492
head 7.18197 -1.51468 0.893593
rclavicle -5.44872e-015 5.36719e-015
rhumerus -38.703 -21.2296 -69.3115
rradius 30.2039
rwrist 3.21449
rhand -7.48434 -39.2392
rfingers 7.12502
rthumb 18.405 -68.3885
lclavicle -5.44872e-015 5.36719e-015
lhumerus -31.4081 10.3927 89.1422
lradius 49.5628
lwrist 8.96275
lhand -16.0911 -22.3574
lfingers 7.12502
lthumb 10.1123 7.37961
rfemur -26.4646 -12.1751 32.1446
rtibia 52.7523
rfoot -12.1015 -10.0109
rtoes 23.2632
lfemur -24.0405 -0.88585 -8.68796
ltibia 87.4852
lfoot -17.8237 1.8782
ltoes -30.553
246
root 2.32508 15.6917 21.8623 -14.589 19.5329 -5.54028
lowerback 17.4497 -0.110364 -4.20411
upperback 2.81167 -0.681854 2.8546
thorax -6.6675 -0.19464 5.62637
lowerneck -9.22004 -2.61451 -2.99477
upperneck 18.0897 -3.60229 2.87739
head 7.16039 -1.66719 1.11081
rclavicle 2.45841e-015 2.94201e-014
rhumerus -37.4693 -17.3886 -72.5472
rradius 33.1717
rwrist 2.46086
rhand -6.52521 -38.2399
rfingers 7.12502
rthumb 19.3274 -67.2994
lclavicle 2.45841e-015 2.94201e-014
lhumerus -31.1778 11.8614 87.8717
lradius 46.882
lwrist 6.23341
lhand -13.6785 -22.31
lfingers 7.12502
lthumb 12.4391 7.29983
rfemur -23.3776 -12.0103 30.718
rtibia 50.0772
rfoot -11.9167 -9.2653
rtoes 22.0376
lfemur -25.1312 -2.25951 -10.084
ltibia 82.472
lfoot -17.6871 1.31053
ltoes -31.4151
247
root 2.33196 15.9553 22.0736 -14.9406 17.7518 -6.68718
lowerback 17.4214 0.416426 -2.72757
upperback 2.78801 0.30001 2.99296
thorax -6.79823 0.255611 4.70057
lowerneck -9.02838 -2.75293 -3.08046
upperneck 18.073 -3.84528 3.21493
head 7.13689 -1.76167 1.21476
rclavicle -5.6722e-014 3.12092e-014
rhumerus -36.6302 -13.6533 -75.3761
rradius 36.7519
rwrist 1.98275
rhand -6.02691 -37.4066
rfingers 7.12502
rthumb 19.8065 -66.4174
lclavicle -5.6722e-014 3.12092e-014
lhumerus -31.3013 14.2801 86.1572
lradius 44.2597
lwrist 2.24679
lhand -12.2597 -23.2621
lfingers 7.12502
lthumb 13.8067 6.25976
rfemur -20.4304 -10.5961 32.4516
rtibia 47.0022
rfoot -11.6603 -8.95334
rtoes 20.7659
lfemur -25.4495 -2.57805 -8.22528
ltibia 76.6883
lfoot -17.5207 0.983913
ltoes -32.0449
